<?xml version="1.0" encoding="UTF-8" standalone="no"?>
<!DOCTYPE svg PUBLIC "-//W3C//DTD SVG 1.1//EN" "http://www.w3.org/Graphics/SVG/1.1/DTD/svg11.dtd">
<svg width="100%" height="100%" viewBox="0 0 97 25" version="1.1" xmlns="http://www.w3.org/2000/svg" xmlns:xlink="http://www.w3.org/1999/xlink" xml:space="preserve" xmlns:serif="http://www.serif.com/" style="fill-rule:evenodd;clip-rule:evenodd;stroke-linejoin:round;stroke-miterlimit:2;">
    <g transform="matrix(0.64,0,0,0.64,0,0)">
        <path d="M41,23.1C41,23.3 40.8,23.5 40.6,23.5L40.2,23.5C40,23.5 39.8,23.3 39.8,23.1L39.8,22.7C39.8,22.4 40,22.3 40.2,22.3L40.6,22.3C40.9,22.3 41,22.5 41,22.7" style="fill:rgb(31,156,216);fill-rule:nonzero;"/>
        <path d="M44.2,23.1C44.2,23.3 44,23.5 43.8,23.5L43.4,23.5C43.2,23.5 43,23.3 43,23.1L43,22.7C43,22.4 43.2,22.3 43.4,22.3L43.8,22.3C44.1,22.3 44.2,22.5 44.2,22.7" style="fill:rgb(31,156,216);fill-rule:nonzero;"/>
        <path d="M47.3,23.1C47.3,23.3 47.1,23.5 46.9,23.5L46.5,23.5C46.3,23.5 46.1,23.3 46.1,23.1L46.1,22.7C46.1,22.4 46.3,22.3 46.5,22.3L46.9,22.3C47.2,22.3 47.3,22.5 47.3,22.7" style="fill:rgb(31,156,216);fill-rule:nonzero;"/>
        <path d="M50.5,23.1C50.5,23.3 50.3,23.5 50.1,23.5L49.7,23.5C49.5,23.5 49.3,23.3 49.3,23.1L49.3,22.7C49.3,22.4 49.5,22.3 49.7,22.3L50.1,22.3C50.4,22.3 50.5,22.5 50.5,22.7" style="fill:rgb(31,156,216);fill-rule:nonzero;"/>
        <path d="M53.6,23.1C53.6,23.3 53.4,23.5 53.2,23.5L52.8,23.5C52.6,23.5 52.4,23.3 52.4,23.1L52.4,22.7C52.4,22.4 52.6,22.3 52.8,22.3L53.2,22.3C53.5,22.3 53.6,22.5 53.6,22.7" style="fill:rgb(31,156,216);fill-rule:nonzero;"/>
        <path d="M56.8,23.1C56.8,23.3 56.6,23.5 56.4,23.5L56,23.5C55.8,23.5 55.6,23.3 55.6,23.1L55.6,22.7C55.6,22.4 55.8,22.3 56,22.3L56.4,22.3C56.7,22.3 56.8,22.5 56.8,22.7" style="fill:rgb(31,156,216);fill-rule:nonzero;"/>
        <path d="M59.9,23.1C59.9,23.3 59.7,23.5 59.5,23.5L59.1,23.5C58.9,23.5 58.7,23.3 58.7,23.1L58.7,22.7C58.7,22.4 58.9,22.3 59.1,22.3L59.5,22.3C59.8,22.3 59.9,22.5 59.9,22.7" style="fill:rgb(31,156,216);fill-rule:nonzero;"/>
        <path d="M63.1,23.1C63.1,23.3 62.9,23.5 62.7,23.5L62.3,23.5C62.1,23.5 61.9,23.3 61.9,23.1L61.9,22.7C61.9,22.4 62.1,22.3 62.3,22.3L62.7,22.3C63,22.3 63.1,22.5 63.1,22.7" style="fill:rgb(31,156,216);fill-rule:nonzero;"/>
        <path d="M66.2,23.1C66.2,23.3 66,23.5 65.8,23.5L65.4,23.5C65.2,23.5 65,23.3 65,23.1L65,22.7C65,22.4 65.2,22.3 65.4,22.3L65.8,22.3C66.1,22.3 66.2,22.5 66.2,22.7" style="fill:rgb(31,156,216);fill-rule:nonzero;"/>
        <path d="M69.4,23.1C69.4,23.3 69.2,23.5 69,23.5L68.6,23.5C68.4,23.5 68.2,23.3 68.2,23.1L68.2,22.7C68.2,22.4 68.4,22.3 68.6,22.3L69,22.3C69.3,22.3 69.4,22.5 69.4,22.7" style="fill:rgb(31,156,216);fill-rule:nonzero;"/>
        <path d="M72.5,23.1C72.5,23.3 72.3,23.5 72.1,23.5L71.7,23.5C71.5,23.5 71.3,23.3 71.3,23.1L71.3,22.7C71.3,22.4 71.5,22.3 71.7,22.3L72.1,22.3C72.4,22.3 72.5,22.5 72.5,22.7" style="fill:rgb(31,156,216);fill-rule:nonzero;"/>
        <path d="M75.7,23.1C75.7,23.3 75.5,23.5 75.3,23.5L74.9,23.5C74.7,23.5 74.5,23.3 74.5,23.1L74.5,22.7C74.5,22.4 74.7,22.3 74.9,22.3L75.3,22.3C75.6,22.3 75.7,22.5 75.7,22.7" style="fill:rgb(31,156,216);fill-rule:nonzero;"/>
        <path d="M78.8,23.1C78.8,23.3 78.6,23.5 78.4,23.5L78,23.5C77.8,23.5 77.6,23.3 77.6,23.1L77.6,22.7C77.6,22.4 77.8,22.3 78,22.3L78.4,22.3C78.7,22.3 78.8,22.5 78.8,22.7" style="fill:rgb(31,156,216);fill-rule:nonzero;"/>
        <path d="M82,23.1C82,23.3 81.8,23.5 81.6,23.5L81.2,23.5C81,23.5 80.8,23.3 80.8,23.1L80.8,22.7C80.8,22.4 81,22.3 81.2,22.3L81.6,22.3C81.9,22.3 82,22.5 82,22.7" style="fill:rgb(31,156,216);fill-rule:nonzero;"/>
        <path d="M85.1,23.1C85.1,23.3 84.9,23.5 84.7,23.5L84.3,23.5C84.1,23.5 83.9,23.3 83.9,23.1L83.9,22.7C83.9,22.4 84.1,22.3 84.3,22.3L84.7,22.3C85,22.3 85.1,22.5 85.1,22.7" style="fill:rgb(31,156,216);fill-rule:nonzero;"/>
        <path d="M88.3,23.1C88.3,23.3 88.1,23.5 87.9,23.5L87.5,23.5C87.3,23.5 87.1,23.3 87.1,23.1L87.1,22.7C87.1,22.4 87.3,22.3 87.5,22.3L87.9,22.3C88.2,22.3 88.3,22.5 88.3,22.7" style="fill:rgb(31,156,216);fill-rule:nonzero;"/>
        <path d="M91.4,23.1C91.4,23.3 91.2,23.5 91,23.5L90.6,23.5C90.4,23.5 90.2,23.3 90.2,23.1L90.2,22.7C90.2,22.4 90.4,22.3 90.6,22.3L91,22.3C91.3,22.3 91.4,22.5 91.4,22.7" style="fill:rgb(31,156,216);fill-rule:nonzero;"/>
        <path d="M94.6,23.1C94.6,23.3 94.4,23.5 94.2,23.5L93.8,23.5C93.6,23.5 93.4,23.3 93.4,23.1L93.4,22.7C93.4,22.4 93.6,22.3 93.8,22.3L94.2,22.3C94.5,22.3 94.6,22.5 94.6,22.7" style="fill:rgb(31,156,216);fill-rule:nonzero;"/>
        <path d="M97.7,23.1C97.7,23.3 97.5,23.5 97.3,23.5L96.9,23.5C96.7,23.5 96.5,23.3 96.5,23.1L96.5,22.7C96.5,22.4 96.7,22.3 96.9,22.3L97.3,22.3C97.6,22.3 97.7,22.5 97.7,22.7" style="fill:rgb(31,156,216);fill-rule:nonzero;"/>
        <path d="M100.9,23.1C100.9,23.3 100.7,23.5 100.5,23.5L100.1,23.5C99.9,23.5 99.7,23.3 99.7,23.1L99.7,22.7C99.7,22.4 99.9,22.3 100.1,22.3L100.5,22.3C100.8,22.3 100.9,22.5 100.9,22.7" style="fill:rgb(31,156,216);fill-rule:nonzero;"/>
        <path d="M104,23.1C104,23.3 103.8,23.5 103.6,23.5L103.2,23.5C103,23.5 102.8,23.3 102.8,23.1L102.8,22.7C102.8,22.4 102.9,22.3 103.2,22.3L103.6,22.3C103.9,22.3 104,22.5 104,22.7" style="fill:rgb(31,156,216);fill-rule:nonzero;"/>
        <path d="M107.1,23.1C107.1,23.3 106.9,23.5 106.7,23.5L106.3,23.5C106.1,23.5 105.9,23.3 105.9,23.1L105.9,22.7C105.9,22.4 106.1,22.3 106.3,22.3L106.7,22.3C107,22.3 107.1,22.5 107.1,22.7" style="fill:rgb(31,156,216);fill-rule:nonzero;"/>
        <path d="M110.3,23.1C110.3,23.3 110.2,23.5 109.9,23.5L109.5,23.5C109.3,23.5 109.1,23.3 109.1,23.1L109.1,22.7C109.1,22.4 109.3,22.3 109.5,22.3L109.9,22.3C110.2,22.3 110.3,22.5 110.3,22.7" style="fill:rgb(31,156,216);fill-rule:nonzero;"/>
        <path d="M113.4,23.1C113.4,23.3 113.2,23.5 113,23.5L112.6,23.5C112.4,23.5 112.2,23.3 112.2,23.1L112.2,22.7C112.2,22.4 112.4,22.3 112.6,22.3L113,22.3C113.3,22.3 113.4,22.5 113.4,22.7" style="fill:rgb(31,156,216);fill-rule:nonzero;"/>
        <path d="M116.6,23.1C116.6,23.3 116.4,23.5 116.2,23.5L115.8,23.5C115.6,23.5 115.4,23.3 115.4,23.1L115.4,22.7C115.4,22.4 115.6,22.3 115.8,22.3L116.2,22.3C116.5,22.3 116.6,22.5 116.6,22.7" style="fill:rgb(31,156,216);fill-rule:nonzero;"/>
        <path d="M119.7,23.1C119.7,23.3 119.5,23.5 119.3,23.5L118.9,23.5C118.7,23.5 118.5,23.3 118.5,23.1L118.5,22.7C118.5,22.4 118.7,22.3 118.9,22.3L119.3,22.3C119.5,22.3 119.7,22.5 119.7,22.7" style="fill:rgb(31,156,216);fill-rule:nonzero;"/>
        <path d="M122.9,23.1C122.9,23.3 122.7,23.5 122.5,23.5L122.1,23.5C121.9,23.5 121.7,23.3 121.7,23.1L121.7,22.7C121.7,22.4 121.9,22.3 122.1,22.3L122.5,22.3C122.8,22.3 122.9,22.5 122.9,22.7" style="fill:rgb(31,156,216);fill-rule:nonzero;"/>
        <path d="M126,23.1C126,23.3 125.8,23.5 125.6,23.5L125.2,23.5C125,23.5 124.8,23.3 124.8,23.1L124.8,22.7C124.8,22.4 125,22.3 125.2,22.3L125.6,22.3C125.9,22.3 126,22.5 126,22.7" style="fill:rgb(31,156,216);fill-rule:nonzero;"/>
        <path d="M129.2,23.1C129.2,23.3 129,23.5 128.8,23.5L128.4,23.5C128.2,23.5 128,23.3 128,23.1L128,22.7C128,22.4 128.2,22.3 128.4,22.3L128.8,22.3C129.1,22.3 129.2,22.5 129.2,22.7" style="fill:rgb(31,156,216);fill-rule:nonzero;"/>
        <path d="M132.3,23.1C132.3,23.3 132.1,23.5 131.9,23.5L131.5,23.5C131.3,23.5 131.1,23.3 131.1,23.1L131.1,22.7C131.1,22.4 131.3,22.3 131.5,22.3L131.9,22.3C132.2,22.3 132.3,22.5 132.3,22.7" style="fill:rgb(31,156,216);fill-rule:nonzero;"/>
        <path d="M135.5,23.1C135.5,23.3 135.3,23.5 135.1,23.5L134.7,23.5C134.5,23.5 134.3,23.3 134.3,23.1L134.3,22.7C134.3,22.4 134.5,22.3 134.7,22.3L135.1,22.3C135.4,22.3 135.5,22.5 135.5,22.7" style="fill:rgb(31,156,216);fill-rule:nonzero;"/>
        <path d="M138.6,23.1C138.6,23.3 138.4,23.5 138.2,23.5L137.8,23.5C137.6,23.5 137.4,23.3 137.4,23.1L137.4,22.7C137.4,22.4 137.6,22.3 137.8,22.3L138.2,22.3C138.5,22.3 138.6,22.5 138.6,22.7" style="fill:rgb(31,156,216);fill-rule:nonzero;"/>
        <path d="M141.8,23.1C141.8,23.3 141.7,23.5 141.4,23.5L141,23.5C140.8,23.5 140.6,23.3 140.6,23.1L140.6,22.7C140.6,22.4 140.8,22.3 141,22.3L141.4,22.3C141.7,22.3 141.8,22.5 141.8,22.7" style="fill:rgb(31,156,216);fill-rule:nonzero;"/>
        <path d="M144.9,23.1C144.9,23.3 144.7,23.5 144.5,23.5L144.1,23.5C143.9,23.5 143.7,23.3 143.7,23.1L143.7,22.7C143.7,22.4 143.9,22.3 144.1,22.3L144.5,22.3C144.8,22.3 144.9,22.5 144.9,22.7" style="fill:rgb(31,156,216);fill-rule:nonzero;"/>
        <path d="M148.1,23.1C148.1,23.3 147.9,23.5 147.7,23.5L147.3,23.5C147.1,23.5 146.9,23.3 146.9,23.1L146.9,22.7C146.9,22.4 147.1,22.3 147.3,22.3L147.7,22.3C148,22.3 148.1,22.5 148.1,22.7" style="fill:rgb(31,156,216);fill-rule:nonzero;"/>
        <path d="M151.2,23.1C151.2,23.3 151,23.5 150.8,23.5L150.4,23.5C150.2,23.5 150,23.3 150,23.1L150,22.7C150,22.4 150.2,22.3 150.4,22.3L150.8,22.3C151.1,22.3 151.2,22.5 151.2,22.7" style="fill:rgb(31,156,216);fill-rule:nonzero;"/>
        <path d="M47.8,6C47.8,5.5 48.1,5.3 48.6,5.3L50.1,5.3C50.6,5.3 50.8,5.6 50.8,6L50.8,13.3C50.8,16.5 48.5,18 45.4,18C42.1,18 40,16.5 40,13.3L40,6C40,5.5 40.3,5.3 40.8,5.3L42.3,5.3C42.8,5.3 43,5.6 43,6L43,13.3C43,14.7 43.7,15.5 45.4,15.5C47.1,15.5 47.8,14.8 47.8,13.3" style="fill:rgb(0,92,149);fill-rule:nonzero;"/>
        <path d="M57.1,10.4L57.1,17.1C57.1,17.6 56.8,17.8 56.3,17.8L54.8,17.8C54.3,17.8 54,17.5 54,17.1L54,6C54,5.5 54.3,5.3 54.8,5.3L56.3,5.3C56.7,5.3 57,5.4 57.1,5.7L61.8,12.8L61.8,6C61.8,5.5 62.1,5.3 62.6,5.3L64.1,5.3C64.6,5.3 64.8,5.6 64.8,6L64.8,17.1C64.8,17.6 64.5,17.8 64.1,17.8L62.6,17.8C62.2,17.8 61.9,17.7 61.8,17.4" style="fill:rgb(0,92,149);fill-rule:nonzero;"/>
        <path d="M71.2,17.1C71.2,17.6 70.9,17.8 70.4,17.8L68.9,17.8C68.4,17.8 68.1,17.5 68.1,17.1L68.1,6C68.1,5.5 68.4,5.3 68.9,5.3L70.4,5.3C70.9,5.3 71.2,5.6 71.2,6" style="fill:rgb(0,92,149);fill-rule:nonzero;"/>
        <path d="M83.5,5.3L85,5.3C85.4,5.3 85.7,5.5 85.7,5.8L85.7,6C84.5,10.9 82.6,15.8 81.7,17.9L77.7,17.9C76.8,15.9 74.8,10.9 73.7,6L73.7,5.8C73.7,5.5 74,5.3 74.4,5.3L76.2,5.3C76.7,5.3 77,5.6 77.1,6C77.8,9.1 79.1,13.5 79.9,15.3C80.7,13.5 82.1,9 82.8,6C82.7,5.6 83,5.3 83.5,5.3" style="fill:rgb(0,92,149);fill-rule:nonzero;"/>
        <path d="M88.1,6C88.1,5.5 88.4,5.3 88.9,5.3L96,5.3C96.5,5.3 96.7,5.6 96.7,6L96.7,7C96.7,7.5 96.4,7.7 96,7.7L91.2,7.7L91.2,10.2L95.4,10.2C95.9,10.2 96.2,10.5 96.2,10.9L96.2,11.9C96.2,12.4 95.9,12.6 95.4,12.6L91.2,12.6L91.2,13.8C91.2,14.8 91.5,15.2 92.6,15.2L96.3,15.2C96.8,15.2 97.1,15.5 97.1,15.9L97.1,16.9C97.1,17.4 96.8,17.6 96.3,17.6L91.5,17.6C89.3,17.6 88.2,16.3 88.2,14.2" style="fill:rgb(0,92,149);fill-rule:nonzero;"/>
        <path d="M104.7,14.1L102.8,14.1L102.8,17.1C102.8,17.6 102.5,17.8 102,17.8L100.5,17.8C100,17.8 99.7,17.5 99.7,17.1L99.7,6C99.7,5.5 100,5.3 100.5,5.3L104.6,5.3C107.6,5.3 109.6,6.2 109.6,9.5C109.6,11.5 108.6,12.5 107.4,13.2C108.5,14.1 109.7,16.1 110.2,17.2C110.2,17.3 110.3,17.4 110.3,17.5C110.3,17.8 110,18 109.7,18L107.8,18C107.3,18 107,17.7 106.9,17.3C106.4,16.1 105.5,14.6 104.7,14.1M102.8,7.8L102.8,11.7L104,11.7C105.7,11.7 106.4,11.2 106.4,9.6C106.4,8 105.7,7.8 104,7.8L102.8,7.8Z" style="fill:rgb(0,92,149);fill-rule:nonzero;"/>
        <path d="M112,16.8L112,15.8C112,15.4 112.2,15.2 112.6,15.2L112.8,15.2C113.7,15.4 114.9,15.6 115.8,15.6L116.5,15.6C117.6,15.6 118.4,15.3 118.4,14.2C118.4,13.4 117.7,13.1 116.9,12.9L114.8,12.4C113.3,12 112,11 112,8.9C112,6.4 114.2,5.3 116.9,5.3L117.6,5.3C118.2,5.3 119.3,5.4 120.1,5.6C120.6,5.7 120.9,6 120.9,6.4L120.9,7.4C120.9,7.8 120.7,8 120.3,8L120.1,8C119.3,7.9 118.2,7.7 117.6,7.7L117,7.7C116,7.7 115.2,7.9 115.2,8.8C115.2,9.5 115.8,9.8 116.5,10L118.6,10.5C120.6,11 121.7,12.1 121.7,14.2C121.7,17 119.5,18.1 116.6,18.1L115.9,18.1C115.1,18.1 113.9,17.9 112.9,17.7C112.2,17.5 112,17.2 112,16.8" style="fill:rgb(0,92,149);fill-rule:nonzero;"/>
        <path d="M127.2,17.1C127.2,17.6 126.9,17.8 126.4,17.8L124.9,17.8C124.4,17.8 124.1,17.5 124.1,17.1L124.1,6C124.1,5.5 124.4,5.3 124.9,5.3L126.4,5.3C126.9,5.3 127.2,5.6 127.2,6" style="fill:rgb(0,92,149);fill-rule:nonzero;"/>
        <path d="M135.7,7.8L135.7,17.2C135.7,17.7 135.4,17.9 134.9,17.9L133.4,17.9C132.9,17.9 132.6,17.6 132.6,17.2L132.6,7.8L129.8,7.8C129.3,7.8 129,7.5 129,7.1L129,6C129,5.5 129.3,5.3 129.8,5.3L138.6,5.3C139.1,5.3 139.4,5.6 139.4,6L139.4,7C139.4,7.5 139.1,7.7 138.6,7.7" style="fill:rgb(0,92,149);fill-rule:nonzero;"/>
        <path d="M147.2,13.1L147.2,17.2C147.2,17.7 146.9,17.9 146.4,17.9L144.9,17.9C144.4,17.9 144.1,17.6 144.1,17.2L144.1,13.1L140.1,6C140,5.9 140,5.8 140,5.7C140,5.4 140.2,5.3 140.6,5.3L142.3,5.3C142.8,5.3 143.1,5.6 143.3,6L145.7,10.6L148.2,6C148.4,5.5 148.7,5.3 149.2,5.3L150.7,5.3C151.1,5.3 151.3,5.4 151.3,5.7C151.3,5.8 151.3,5.9 151.2,6" style="fill:rgb(0,92,149);fill-rule:nonzero;"/>
        <path d="M39.4,32.3L39.4,31.8C39.4,29.4 40.6,28 42.8,28C45,28 46.2,29.4 46.2,31.8L46.2,32.3C46.2,34.7 45,36.2 42.8,36.2C40.6,36.2 39.4,34.7 39.4,32.3M44.9,32.3L44.9,31.8C44.9,30 44.3,29.1 42.9,29.1C41.4,29.1 40.9,30 40.9,31.8L40.9,32.3C40.9,34.1 41.5,35 42.9,35C44.3,35 44.9,34 44.9,32.3" style="fill:rgb(31,156,216);fill-rule:nonzero;"/>
        <path d="M47.7,30.4C47.7,28.8 48.6,28 50.1,28L52.2,28L52.2,29.2L50.1,29.2C49.4,29.2 49,29.6 49,30.4L49,31.4L52,31.4L52,32.6L49,32.6L49,36L47.6,36" style="fill:rgb(31,156,216);fill-rule:nonzero;"/>
        <path d="M55.2,36C55.5,34.6 55.8,33.8 56.1,32.6C56.6,30.9 57.5,28.6 57.8,28L59.5,28C59.8,28.6 60.7,30.9 61.2,32.6C61.5,33.7 61.8,34.5 62.1,36L60.7,36C60.5,35.3 60.4,34.7 60.2,34.1L57,34.1C56.8,34.7 56.7,35.3 56.5,36L55.2,36M57.4,33L60,33C60,32.9 59.9,32.8 59.9,32.7C59.5,31.2 59.1,29.8 58.7,29C58.3,29.8 57.9,31.2 57.5,32.7C57.4,32.8 57.4,32.9 57.4,33" style="fill:rgb(31,156,216);fill-rule:nonzero;"/>
        <path d="M63.4,28L66.1,28C67.8,28 68.7,28.9 68.7,30.7C68.7,32.6 67.6,33.6 65.9,33.6L64.7,33.6L64.7,36L63.3,36M65.8,32.5C67,32.5 67.3,31.9 67.3,30.8C67.3,29.6 66.9,29.2 65.8,29.2L64.7,29.2L64.7,32.5L65.8,32.5Z" style="fill:rgb(31,156,216);fill-rule:nonzero;"/>
        <path d="M70.1,28L72.8,28C74.5,28 75.4,28.9 75.4,30.7C75.4,32.6 74.3,33.6 72.6,33.6L71.4,33.6L71.4,36L70,36M72.5,32.5C73.7,32.5 74,31.9 74,30.8C74,29.6 73.6,29.2 72.5,29.2L71.4,29.2L71.4,32.5L72.5,32.5Z" style="fill:rgb(31,156,216);fill-rule:nonzero;"/>
        <path d="M76.7,33.9L76.7,28L78.1,28L78.1,33.8C78.1,34.6 78.4,34.9 79.1,34.9L81.3,34.9L81.3,36L78.9,36C77.4,36 76.7,35.3 76.7,33.9" style="fill:rgb(31,156,216);fill-rule:nonzero;"/>
        <rect x="82.4" y="28" width="1.4" height="8.1" style="fill:rgb(31,156,216);"/>
        <path d="M85.5,33.9L85.5,28L90.2,28L90.2,29.2L86.8,29.2L86.8,31.3L89.8,31.3L89.8,32.5L86.8,32.5L86.8,33.8C86.8,34.6 87.1,34.9 87.8,34.9L90.3,34.9L90.3,36L87.6,36C86.2,36 85.5,35.3 85.5,33.9" style="fill:rgb(31,156,216);fill-rule:nonzero;"/>
        <path d="M91.8,28L94.4,28C96.9,28 98,29.2 98,31.4L98,32.5C98,34.6 97,36.1 94.5,36.1L91.8,36.1M94.5,34.9C96,34.9 96.6,34 96.6,32.4L96.6,31.4C96.6,29.9 95.8,29.1 94.4,29.1L93.1,29.1L93.1,34.8L94.5,34.8L94.5,34.9Z" style="fill:rgb(31,156,216);fill-rule:nonzero;"/>
        <path d="M101.9,35.8L101.9,34.6L102,34.6C102.4,34.7 103.4,34.9 104,34.9L104.4,34.9C105.2,34.9 105.8,34.6 105.8,33.7C105.8,33 105.4,32.7 104.7,32.6L103.6,32.3C102.8,32.1 101.9,31.5 101.9,30.1C101.9,28.7 103,27.9 104.6,27.9L104.9,27.9C105.4,27.9 106.4,28.1 106.8,28.2L106.8,29.3L106.7,29.3C106.3,29.2 105.4,29 104.9,29L104.6,29C103.8,29 103.3,29.3 103.3,30.1C103.3,30.8 103.7,31 104.3,31.2L105.4,31.5C106.4,31.8 107.2,32.3 107.2,33.8C107.2,35.4 106.1,36.2 104.4,36.2L104,36.2C103.4,36.1 102.3,35.9 101.9,35.8" style="fill:rgb(31,156,216);fill-rule:nonzero;"/>
        <path d="M108.3,32.5L108.3,31.6C108.3,29.2 109.8,28 112.2,28C113,28 113.8,28.2 114.2,28.4L114.2,30.4L113,30.4L113,29.3C112.8,29.2 112.4,29.2 112.1,29.2C110.7,29.2 109.8,30 109.8,31.6L109.8,32.6C109.8,34.1 110.6,35.1 112,35.1L112.5,35.1C113.1,35.1 113.8,34.9 114.2,34.8L114.3,34.8L114.3,35.9C114,36 113.2,36.3 112.5,36.3L112,36.3C109.5,36.1 108.3,34.7 108.3,32.5" style="fill:rgb(31,156,216);fill-rule:nonzero;"/>
        <rect x="115.7" y="28" width="1.4" height="8.1" style="fill:rgb(31,156,216);"/>
        <path d="M118.9,33.9L118.9,28L123.6,28L123.6,29.2L120.2,29.2L120.2,31.3L123.2,31.3L123.2,32.5L120.2,32.5L120.2,33.8C120.2,34.6 120.5,34.9 121.2,34.9L123.7,34.9L123.7,36L121,36C119.6,36 118.9,35.3 118.9,33.9" style="fill:rgb(31,156,216);fill-rule:nonzero;"/>
        <path d="M125.1,28L126.2,28L129.9,33.5L129.9,28L131.3,28L131.3,36L130.2,36L126.5,30.6L126.5,36L125.1,36" style="fill:rgb(31,156,216);fill-rule:nonzero;"/>
        <path d="M132.8,32.5L132.8,31.6C132.8,29.2 134.3,28 136.7,28C137.5,28 138.3,28.2 138.7,28.4L138.7,30.4L137.5,30.4L137.5,29.3C137.3,29.2 136.9,29.2 136.6,29.2C135.2,29.2 134.3,30 134.3,31.6L134.3,32.6C134.3,34.1 135.1,35.1 136.5,35.1L137,35.1C137.6,35.1 138.3,34.9 138.7,34.8L138.8,34.8L138.8,35.9C138.5,36 137.7,36.3 137,36.3L136.5,36.3C134,36.1 132.8,34.7 132.8,32.5" style="fill:rgb(31,156,216);fill-rule:nonzero;"/>
        <path d="M140,33.9L140,28L144.7,28L144.7,29.2L141.3,29.2L141.3,31.3L144.3,31.3L144.3,32.5L141.3,32.5L141.3,33.8C141.3,34.6 141.6,34.9 142.3,34.9L144.8,34.9L144.8,36L142.1,36C140.7,36 140,35.3 140,33.9" style="fill:rgb(31,156,216);fill-rule:nonzero;"/>
        <path d="M146,35.8L146,34.6L146.1,34.6C146.5,34.7 147.5,34.9 148.1,34.9L148.5,34.9C149.3,34.9 149.9,34.6 149.9,33.7C149.9,33 149.5,32.7 148.8,32.6L147.7,32.3C146.9,32.1 146,31.5 146,30.1C146,28.7 147.1,27.9 148.7,27.9L149,27.9C149.5,27.9 150.5,28.1 150.9,28.2L150.9,29.3L150.8,29.3C150.4,29.2 149.5,29 149,29L148.7,29C147.9,29 147.4,29.3 147.4,30.1C147.4,30.8 147.8,31 148.4,31.2L149.5,31.5C150.5,31.8 151.3,32.3 151.3,33.8C151.3,35.4 150.2,36.2 148.5,36.2L148.1,36.2C147.5,36.1 146.5,35.9 146,35.8" style="fill:rgb(31,156,216);fill-rule:nonzero;"/>
        <g>
            <path d="M32.5,9.6C32.5,-2.8 26,6.1 16.2,0C6.5,6.1 0,-2.8 0,9.6C0,21.9 6.5,32.8 16.2,38.9C26,32.7 32.5,21.9 32.5,9.6" style="fill:rgb(23,128,195);fill-rule:nonzero;"/>
            <path d="M32.5,9.6C32.5,-2.8 26,6.1 16.3,0L16.3,38.8C26,32.7 32.5,21.9 32.5,9.6" style="fill:rgb(0,92,149);fill-rule:nonzero;"/>
        </g>
        <path d="M16.3,14.6L16.3,19C16.3,19.6 16,20 15.3,20L13.4,20C12.8,20 12.5,19.7 12.5,19L12.5,14.6C12.5,14.6 8.433,14.599 8.4,14.597L8.4,19C8.4,19.6 8.1,20 7.5,20L5.6,20C5,20 4.7,19.7 4.7,19L4.7,8C4.7,7.4 5,7 5.6,7L7.5,7C8.1,7 8.4,7.3 8.4,8L8.4,11.803C8.432,11.801 12.5,11.8 12.5,11.8L12.5,8C12.5,7.4 12.8,7 13.4,7L15.3,7C15.9,7 16.3,7.3 16.3,8L16.3,11.8L25.3,11.8C25.9,11.8 26.2,12.1 26.2,12.8L26.2,13.5C26.2,14 26.1,14.4 25.9,14.8C24.7,16.8 22.2,20.2 20.9,21.9L25.7,21.9C26.3,21.9 26.7,22.2 26.7,22.9L26.7,23.8C26.7,24.4 26.4,24.8 25.7,24.8L17.2,24.8C16.6,24.8 16.3,24.5 16.3,23.8L16.3,23.1C16.3,22.6 16.5,22.2 16.7,21.8C18.3,19.7 21,16.2 21.8,14.6L16.3,14.6Z" style="fill:white;fill-rule:nonzero;"/>
    </g>
</svg>